<mxfile host="app.diagrams.net" agent="Mozilla/5.0 (Windows NT 10.0; Win64; x64) AppleWebKit/537.36 (KHTML, like Gecko) Chrome/133.0.0.0 Safari/537.36" version="26.1.0">
  <diagram name="Страница — 1" id="6h5rhATvqTpvst4QvoAT">
    <mxGraphModel dx="2074" dy="1157" grid="1" gridSize="10" guides="1" tooltips="1" connect="1" arrows="1" fold="1" page="1" pageScale="1" pageWidth="827" pageHeight="1169" math="0" shadow="0">
      <root>
        <mxCell id="0" />
        <mxCell id="1" parent="0" />
        <mxCell id="JhDBM7Urq8e54MOt2i1i-1" value="Серверная программа" style="whiteSpace=wrap;html=1;aspect=fixed;" parent="1" vertex="1">
          <mxGeometry x="380" y="410" width="80" height="80" as="geometry" />
        </mxCell>
        <mxCell id="JhDBM7Urq8e54MOt2i1i-2" value="" style="shape=cylinder3;whiteSpace=wrap;html=1;boundedLbl=1;backgroundOutline=1;size=15;" parent="1" vertex="1">
          <mxGeometry x="680" y="410" width="60" height="80" as="geometry" />
        </mxCell>
        <mxCell id="JhDBM7Urq8e54MOt2i1i-3" value="" style="endArrow=classic;html=1;rounded=0;entryX=0;entryY=0;entryDx=0;entryDy=0;exitX=1;exitY=0.5;exitDx=0;exitDy=0;" parent="1" source="JhDBM7Urq8e54MOt2i1i-1" target="JhDBM7Urq8e54MOt2i1i-7" edge="1">
          <mxGeometry width="50" height="50" relative="1" as="geometry">
            <mxPoint x="465" y="450" as="sourcePoint" />
            <mxPoint x="685" y="450" as="targetPoint" />
          </mxGeometry>
        </mxCell>
        <mxCell id="JhDBM7Urq8e54MOt2i1i-5" value="" style="endArrow=classic;html=1;rounded=0;exitX=0;exitY=0.75;exitDx=0;exitDy=0;exitPerimeter=0;entryX=1;entryY=0.75;entryDx=0;entryDy=0;" parent="1" source="JhDBM7Urq8e54MOt2i1i-2" target="JhDBM7Urq8e54MOt2i1i-1" edge="1">
          <mxGeometry width="50" height="50" relative="1" as="geometry">
            <mxPoint x="470" y="510" as="sourcePoint" />
            <mxPoint x="520" y="460" as="targetPoint" />
          </mxGeometry>
        </mxCell>
        <mxCell id="JhDBM7Urq8e54MOt2i1i-6" value="Результат (набор строк)&lt;div&gt;(он же &quot;сырой&quot; результат)&amp;nbsp;&lt;/div&gt;" style="text;html=1;align=center;verticalAlign=middle;whiteSpace=wrap;rounded=0;" parent="1" vertex="1">
          <mxGeometry x="480" y="470" width="190" height="30" as="geometry" />
        </mxCell>
        <mxCell id="JhDBM7Urq8e54MOt2i1i-7" value="БД" style="text;html=1;align=center;verticalAlign=middle;whiteSpace=wrap;rounded=0;" parent="1" vertex="1">
          <mxGeometry x="680" y="450" width="60" height="30" as="geometry" />
        </mxCell>
        <mxCell id="JhDBM7Urq8e54MOt2i1i-8" value="Клиентская программа" style="rounded=0;whiteSpace=wrap;html=1;" parent="1" vertex="1">
          <mxGeometry x="70" y="420" width="120" height="60" as="geometry" />
        </mxCell>
        <mxCell id="JhDBM7Urq8e54MOt2i1i-9" value="" style="endArrow=classic;html=1;rounded=0;exitX=0;exitY=1;exitDx=0;exitDy=0;entryX=0;entryY=0.5;entryDx=0;entryDy=0;" parent="1" source="JhDBM7Urq8e54MOt2i1i-10" target="JhDBM7Urq8e54MOt2i1i-1" edge="1">
          <mxGeometry width="50" height="50" relative="1" as="geometry">
            <mxPoint x="200" y="500" as="sourcePoint" />
            <mxPoint x="250" y="450" as="targetPoint" />
          </mxGeometry>
        </mxCell>
        <mxCell id="JhDBM7Urq8e54MOt2i1i-10" value="Текст строки запроса" style="text;html=1;align=center;verticalAlign=middle;whiteSpace=wrap;rounded=0;" parent="1" vertex="1">
          <mxGeometry x="190" y="430" width="190" height="20" as="geometry" />
        </mxCell>
        <mxCell id="JhDBM7Urq8e54MOt2i1i-11" value="Запрос в окончательном виде&lt;div&gt;(т.е. понятном для СУБД)&lt;/div&gt;" style="text;html=1;align=center;verticalAlign=middle;resizable=0;points=[];autosize=1;strokeColor=none;fillColor=none;" parent="1" vertex="1">
          <mxGeometry x="480" y="410" width="190" height="40" as="geometry" />
        </mxCell>
        <mxCell id="JhDBM7Urq8e54MOt2i1i-28" value="" style="endArrow=classic;html=1;rounded=0;exitX=0.022;exitY=0.149;exitDx=0;exitDy=0;entryX=1;entryY=0;entryDx=0;entryDy=0;exitPerimeter=0;" parent="1" source="JhDBM7Urq8e54MOt2i1i-1" target="JhDBM7Urq8e54MOt2i1i-8" edge="1">
          <mxGeometry width="50" height="50" relative="1" as="geometry">
            <mxPoint x="360" y="370" as="sourcePoint" />
            <mxPoint x="410" y="320" as="targetPoint" />
          </mxGeometry>
        </mxCell>
        <mxCell id="JhDBM7Urq8e54MOt2i1i-29" value="Результат в обработанном виде" style="text;html=1;align=center;verticalAlign=middle;whiteSpace=wrap;rounded=0;" parent="1" vertex="1">
          <mxGeometry x="190" y="400" width="190" height="20" as="geometry" />
        </mxCell>
        <mxCell id="JhDBM7Urq8e54MOt2i1i-31" value="&lt;h1 style=&quot;margin-top: 0px;&quot;&gt;Формат запроса:&amp;nbsp;&lt;/h1&gt;&lt;div&gt;Строка в поисковом поле, введённая со стороны пользователя + указанные им параметры&lt;/div&gt;" style="text;html=1;whiteSpace=wrap;overflow=hidden;rounded=0;" parent="1" vertex="1">
          <mxGeometry x="80" y="610" width="220" height="120" as="geometry" />
        </mxCell>
        <mxCell id="JhDBM7Urq8e54MOt2i1i-32" value="Параметры" style="text;html=1;align=center;verticalAlign=middle;whiteSpace=wrap;rounded=0;" parent="1" vertex="1">
          <mxGeometry x="190" y="450" width="190" height="20" as="geometry" />
        </mxCell>
        <mxCell id="JhDBM7Urq8e54MOt2i1i-33" value="&lt;h1 style=&quot;margin-top: 0px;&quot;&gt;Параметры:&lt;/h1&gt;&lt;p&gt;Фильтрация и сортировка результата перед выдачей пользователю. (Указываются в готовом интерфейсе путём &quot;нажатия кнопок&quot;)&amp;nbsp;&lt;/p&gt;" style="text;html=1;whiteSpace=wrap;overflow=hidden;rounded=0;" parent="1" vertex="1">
          <mxGeometry x="310" y="610" width="220" height="120" as="geometry" />
        </mxCell>
        <mxCell id="JhDBM7Urq8e54MOt2i1i-35" value="&lt;h1 style=&quot;margin-top: 0px;&quot;&gt;Конечный результат&lt;/h1&gt;&lt;p&gt;Должен быть записан в виде, удобном для сохранения, перемещения и применения других операций.&lt;/p&gt;" style="text;html=1;whiteSpace=wrap;overflow=hidden;rounded=0;" parent="1" vertex="1">
          <mxGeometry x="530" y="610" width="250" height="120" as="geometry" />
        </mxCell>
        <mxCell id="JhDBM7Urq8e54MOt2i1i-36" value="&lt;h1 style=&quot;margin-top: 0px;&quot;&gt;&lt;span style=&quot;background-color: transparent; color: light-dark(rgb(0, 0, 0), rgb(255, 255, 255));&quot;&gt;База данных:&lt;/span&gt;&lt;/h1&gt;&lt;div&gt;Должна иметь наиболее оптимальный для полнотекстового поиска вариант индексации (предполагается, что данные меняться не будут)&lt;/div&gt;" style="text;html=1;whiteSpace=wrap;overflow=hidden;rounded=0;" parent="1" vertex="1">
          <mxGeometry x="80" y="730" width="230" height="120" as="geometry" />
        </mxCell>
      </root>
    </mxGraphModel>
  </diagram>
</mxfile>
